<svg width="288" height="288" viewBox="0 0 288 288" fill="none" xmlns="http://www.w3.org/2000/svg">
<circle cx="143.5" cy="74.5" r="58.5" stroke="#5E5E5E" stroke-width="4"/>
<circle cx="222.5" cy="212.5" r="58.5" stroke="#5E5E5E" stroke-width="4"/>
<circle cx="64.5" cy="212.5" r="58.5" stroke="#5E5E5E" stroke-width="4"/>
<circle cx="143.5" cy="74.5" r="25.5" fill="#4A779F"/>
<circle cx="222.5" cy="212.5" r="25.5" fill="#4A779F"/>
<circle cx="64.5" cy="212.5" r="25.5" fill="#4A779F"/>
<path fill-rule="evenodd" clip-rule="evenodd" d="M177.856 132.641C177.3 131.677 176.064 131.356 175.089 131.893C174.842 132.029 174.595 132.164 174.346 132.297C173.327 132.842 172.937 134.12 173.515 135.121L185.507 155.892C186.082 156.888 187.375 157.193 188.356 156.592C188.597 156.445 188.838 156.3 189.08 156.156C190.042 155.584 190.388 154.347 189.829 153.378L177.856 132.641ZM155.017 212C156.116 212 157.005 211.113 157.046 210.016C157.057 209.733 157.069 209.45 157.083 209.168C157.142 208 156.224 207 155.054 207H131.946C130.776 207 129.858 208 129.917 209.168C129.931 209.45 129.943 209.733 129.954 210.016C129.995 211.113 130.885 212 131.983 212H155.017ZM97.913 153.825C97.3587 154.785 97.6928 156.01 98.6385 156.589C98.8791 156.736 99.1186 156.885 99.3571 157.035C100.339 157.654 101.649 157.354 102.229 156.349L114.252 135.525C114.835 134.515 114.432 133.225 113.397 132.688C113.146 132.558 112.897 132.427 112.649 132.294C111.676 131.774 110.456 132.099 109.905 133.054L97.913 153.825Z" fill="#4A779F"/>
</svg>
